<svg width="56" height="56" viewBox="0 0 56 56" fill="none" xmlns="http://www.w3.org/2000/svg">
<path d="M0 4C0 1.79086 1.79086 0 4 0H52C54.2091 0 56 1.79086 56 4V52C56 54.2091 54.2091 56 52 56H4C1.79086 56 0 54.2091 0 52V4Z" fill="url(#paint0_linear_8846_60887)"/>
<g opacity="0.4">
<path fill-rule="evenodd" clip-rule="evenodd" d="M36.65 27.7425L41.0976 33.4348H45.9979L38.7363 24.4967L45.3834 15.9663H40.7741L36.6985 21.2999L33.0434 15.9663H28.4018L34.5151 24.4967L27.8681 33.4348H32.6553L36.65 27.7425ZM19.0317 15.9745C16.5811 16.0361 14.5449 16.8847 12.9229 18.5205C11.301 20.1562 10.4594 22.2098 10.3984 24.6812V40.4236H13.8286V33.4271H19.0317C21.4838 33.3639 23.5266 32.5088 25.1598 30.8617C26.793 29.2146 27.6408 27.1546 27.7036 24.6815C27.6409 22.21 26.793 20.1565 25.1598 18.5207C23.5266 16.885 21.4839 16.0364 19.0317 15.9748V15.9745ZM13.8308 29.9677V24.6815C13.8669 23.1874 14.3728 21.9485 15.3483 20.9646C16.3239 19.9807 17.5524 19.4706 19.0339 19.4341C20.5338 19.4706 21.7735 19.9807 22.7531 20.9646C23.7327 21.9485 24.2401 23.1874 24.2755 24.6815C24.2401 26.1941 23.7327 27.4444 22.7531 28.4324C21.7735 29.4204 20.5338 29.9321 19.0339 29.9677H13.8308Z" fill="white"/>
</g>
<defs>
<linearGradient id="paint0_linear_8846_60887" x1="56" y1="0" x2="6.67572e-06" y2="56" gradientUnits="userSpaceOnUse">
<stop stop-color="#93D9CD"/>
<stop offset="1" stop-color="#4D8168"/>
</linearGradient>
</defs>
</svg>
